# xmcd
#
# Track frame offsets:
#	150
#	12690
#	24475
#	37055
#	50585
#	63745
#	76585
#	87125
#	99377
#	113765
#	129540
#	142715
#	157720
#	169312
#	181865
#	192552
#	203037
#	216665
#
# Disc length: 3061
#
# Revision: 2
# Processed by: cddbd v1.5.1PL0 Copyright (c) Steve Scherf et al.
# Submitted via: audiograbber 1.80.04
# Normalized: r1:DSETVAR1
#
DISCID=f50bf312
DTITLE=Various Artist - Blues and Soul Legends CD 2
DYEAR=1996
DGENRE=Blues
TTITLE0=Muddy Waters - I'm Your Hoochie Coochie Man
TTITLE1=Little Walter - My Babe
TTITLE2=Etta James - Something's Got A Hold On Me
TTITLE3=Eddie Floyd - Knock On Wood
TTITLE4=Ben E King - Stand By Me
TTITLE5=Fontella Bass and Bobby McClure - Don't Mess Up A Good Thing
TTITLE6=Little Milton - Ain't No Big Deal On You
TTITLE7=Lightnin' Hopkins - Sittin' Down Thinkin'
TTITLE8=Bo Diddley - You Can't Judge A Book
TTITLE9=Cher - He Ain't Heavy He's My Brother
TTITLE10=Percy Sledge - When A Man Loves A Woman
TTITLE11=Dee Clark - (Sittin' On) The Dock Of The Bay
TTITLE12=Sonny Boy Williamson - Don't Start Me Talkin'
TTITLE13=Jimmy Rogers - That's Alright
TTITLE14=Sam and Dave - Sweet Soul Music
TTITLE15=Martha Reeves - In The Midnight Hour
TTITLE16=Irma Thomas - I've Been Lovin' You Too Long
TTITLE17=Laura Lee - Dirty Man
EXTD=
EXTT0=
EXTT1=
EXTT2=
EXTT3=
EXTT4=
EXTT5=
EXTT6=
EXTT7=
EXTT8=
EXTT9=
EXTT10=
EXTT11=
EXTT12=
EXTT13=
EXTT14=
EXTT15=
EXTT16=
EXTT17=
PLAYORDER=
